2D_gait_states
version=1
nRows=12
nColumns=39
inDegrees=yes

# SIMM Motion File Header:
name 2D_gait_states
datacolumns 39
datarows 12
otherdata 1
range 0.07991013 0.19672970
endheader
time	/hamstrings_r/activation	/bifemsh_r/activation	/glut_max_r/activation	/iliopsoas_r/activation	/rect_fem_r/activation	/vasti_r/activation	/gastroc_r/activation	/soleus_r/activation	/tib_ant_r/activation	/hamstrings_l/activation	/bifemsh_l/activation	/glut_max_l/activation	/iliopsoas_l/activation	/rect_fem_l/activation	/vasti_l/activation	/gastroc_l/activation	/soleus_l/activation	/tib_ant_l/activation	/jointset/groundPelvis/pelvis_tilt/value	/jointset/groundPelvis/pelvis_tilt/speed	/jointset/groundPelvis/pelvis_tx/value	/jointset/groundPelvis/pelvis_tx/speed	/jointset/groundPelvis/pelvis_ty/value	/jointset/groundPelvis/pelvis_ty/speed	/jointset/hip_l/hip_flexion_l/value	/jointset/hip_l/hip_flexion_l/speed	/jointset/hip_r/hip_flexion_r/value	/jointset/hip_r/hip_flexion_r/speed	/jointset/knee_l/knee_angle_l/value	/jointset/knee_l/knee_angle_l/speed	/jointset/knee_r/knee_angle_r/value	/jointset/knee_r/knee_angle_r/speed	/jointset/ankle_l/ankle_angle_l/value	/jointset/ankle_l/ankle_angle_l/speed	/jointset/ankle_r/ankle_angle_r/value	/jointset/ankle_r/ankle_angle_r/speed	/jointset/lumbar/lumbar/value	/jointset/lumbar/lumbar/speed
      0.07991013	      0.00003579	      0.00003579	      0.00003579	      0.00003579	      0.00003579	      0.00003579	      0.00003579	      0.00003579	      0.00003579	      0.00003579	      0.00003579	      0.00003579	      0.00003579	      0.00003579	      0.00003579	      0.00003579	      0.00003579	      0.00003579	     -3.27014191	    221.05833937	      0.00454543	      0.05571685	      0.92169365	     -0.45828969	    -13.62982195	   -263.40647512	     23.44253938	   -265.51739820	    -11.14193289	     61.84568732	     -8.01283842	     -0.35005120	    -19.47807321	    -98.52454624	    -22.05487716	    -66.10757458	     -4.14095061	   -255.85772395
      0.08778642	      0.00002049	      0.00002049	      0.00002049	      0.00002049	      0.00002049	      0.00002049	      0.00002049	      0.00002049	      0.00002049	      0.00002049	      0.00002049	      0.00002049	      0.00002049	      0.00002049	      0.00002049	      0.00002049	      0.00002049	      0.00002049	     -1.54573247	    216.17535081	      0.00494033	      0.04443846	      0.91775435	     -0.54291546	    -15.67042269	   -253.93881687	     21.37882600	   -257.73876225	    -10.69843556	     50.59820262	     -8.06515483	    -12.84302672	    -20.00429544	    -36.36063703	    -22.25762578	     11.94597492	     -6.13629734	   -250.07945963
      0.09566272	      0.00001173	      0.00001173	      0.00001173	      0.00001173	      0.00001173	      0.00001173	      0.00001173	      0.00001173	      0.00001173	      0.00001173	      0.00001173	      0.00001173	      0.00001173	      0.00001173	      0.00001173	      0.00001173	      0.00001173	      0.00001173	      0.12613679	    207.84651913	      0.00524464	      0.03284232	      0.91312838	     -0.63247102	    -17.61859065	   -240.11656103	     19.39338139	   -245.80793693	    -10.34665574	     38.66891119	     -8.21310916	    -24.56720185	    -20.07360138	     17.16583422	    -21.91051362	     73.35499839	     -8.07000408	   -240.35888596
      0.10353902	      0.00000671	      0.00000671	      0.00000671	      0.00000671	      0.00000671	      0.00000671	      0.00000671	      0.00000671	      0.00000671	      0.00000671	      0.00000671	      0.00000671	      0.00000671	      0.00000671	      0.00000671	      0.00000671	      0.00000671	      0.00000671	      1.72132116	    196.82209681	      0.00545855	      0.02157017	      0.90778116	     -0.72588687	    -19.44419534	   -222.98035505	     17.51510974	   -230.67401862	    -10.08948985	     26.66014483	     -8.44931031	    -35.21758009	    -19.76092081	     60.42955550	    -21.14700925	    117.70371541	     -9.91456302	   -227.58322617
      0.11390036	      0.00000322	      0.00000322	      0.00000322	      0.00000322	      0.00000322	      0.00000322	      0.00000322	      0.00000322	      0.00000322	      0.00000322	      0.00000322	      0.00000322	      0.00000322	      0.00000322	      0.00000322	      0.00000322	      0.00000322	      0.00000322	      3.67245422	    179.31947621	      0.00561003	      0.00794071	      0.89960483	     -0.85301547	    -21.62225545	   -196.89093383	     15.24347415	   -207.25596771	     -9.89288435	     11.44621132	     -8.87926219	    -47.44159531	    -18.91083216	    100.43019645	    -19.73006344	    151.36940748	    -12.17094248	   -207.42908491
      0.12426170	      0.00000155	      0.00000155	      0.00000155	      0.00000155	      0.00000155	      0.00000155	      0.00000155	      0.00000155	      0.00000155	      0.00000155	      0.00000155	      0.00000155	      0.00000155	      0.00000155	      0.00000155	      0.00000155	      0.00000155	      0.00000155	      5.42938562	    159.51020894	      0.00562946	     -0.00386517	      0.89009358	     -0.98329748	    -23.51547751	   -168.22473628	     13.22933803	   -181.17589253	     -9.84835932	     -2.64655556	     -9.42604210	    -57.82773859	    -17.74520099	    121.56228409	    -18.09407131	    160.82861252	    -14.20444832	   -184.76678890
      0.13462305	      0.00000074	      0.00000074	      0.00000074	      0.00000074	      0.00000074	      0.00000074	      0.00000074	      0.00000074	      0.00000074	      0.00000074	      0.00000074	      0.00000074	      0.00000074	      0.00000074	      0.00000074	      0.00000074	      0.00000074	      0.00000074	      6.97304202	    138.27233607	      0.00553679	     -0.01369539	      0.87922197	     -1.11542387	    -25.10333067	   -138.09600555	     11.49463489	   -153.45621879	     -9.94345511	    -15.51263003	    -10.07280211	    -66.82359937	    -16.44930017	    126.08035661	    -16.46134238	    151.74924793	    -15.99472898	   -160.61965814
      0.14498439	      0.00000036	      0.00000036	      0.00000036	      0.00000036	      0.00000036	      0.00000036	      0.00000036	      0.00000036	      0.00000036	      0.00000036	      0.00000036	      0.00000036	      0.00000036	      0.00000036	      0.00000036	      0.00000036	      0.00000036	      0.00000036	      8.29189008	    116.19459015	      0.00535222	     -0.02162975	      0.86697554	     -1.24856750	    -26.37464807	   -107.21736249	     10.05263220	   -124.76530429	    -10.16608552	    -27.30037733	    -10.80771988	    -74.92189404	    -15.17771885	    117.51991431	    -14.99234331	    130.22128009	    -17.53015655	   -135.66181015
      0.15756988	      0.00000015	      0.00000015	      0.00000015	      0.00000015	      0.00000015	      0.00000015	      0.00000015	      0.00000015	      0.00000015	      0.00000015	      0.00000015	      0.00000015	      0.00000015	      0.00000015	      0.00000015	      0.00000015	      0.00000015	      0.00000015	      9.58219116	     88.77488218	      0.00503113	     -0.02901693	      0.85024004	     -1.41102202	    -27.48570425	    -69.30849300	      8.70559435	    -89.20668532	    -10.59392156	    -40.51955979	    -11.80906373	    -84.13019487	    -13.82785158	     95.37949622	    -13.56662422	     95.42384880	    -19.04392095	   -104.83808982
      0.17015538	      0.00000006	      0.00000006	      0.00000006	      0.00000006	      0.00000006	      0.00000006	      0.00000006	      0.00000006	      0.00000006	      0.00000006	      0.00000006	      0.00000006	      0.00000006	      0.00000006	      0.00000006	      0.00000006	      0.00000006	      0.00000006	     10.52523914	     61.06238639	      0.00463031	     -0.03438403	      0.83145674	     -1.57395868	    -28.11911147	    -31.36938567	      7.80858728	    -53.31496681	    -11.18254847	    -52.90842445	    -12.92429744	    -93.07309294	    -12.80300465	     66.97139878	    -12.59717599	     58.91528814	    -20.16831300	    -73.83462490
      0.18448651	      0.00000002	      0.00000002	      0.00000002	      0.00000002	      0.00000002	      0.00000002	      0.00000002	      0.00000002	      0.00000002	      0.00000002	      0.00000002	      0.00000002	      0.00000002	      0.00000002	      0.00000002	      0.00000002	      0.00000002	      0.00000002	     11.17381934	     29.46828249	      0.00410483	     -0.03868915	      0.80756799	     -1.75993474	    -28.26083834	     11.50275659	      7.33739987	    -12.48762355	    -12.03765342	    -66.31590170	    -14.33051277	   -103.15681320	    -12.07982777	     34.45695412	    -12.02221175	     22.75066222	    -20.97373733	    -38.59930740
      0.19672970	      0.00000001	      0.00000001	      0.00000001	      0.00000001	      0.00000001	      0.00000001	      0.00000001	      0.00000001	      0.00000001	      0.00000001	      0.00000001	      0.00000001	      0.00000001	      0.00000001	      0.00000001	      0.00000001	      0.00000001	      0.00000001	     11.37027509	      2.67412669	      0.00361394	     -0.04139572	      0.78504673	     -1.91907778	    -27.89857314	     47.56202319	      7.39611839	     21.98365477	    -12.91698708	    -77.24263456	    -15.64559611	   -111.63464335	    -11.80750928	     10.91776984	    -11.89171843	     -0.04681490	    -21.26321650	     -8.74327012
